<svg viewBox="0 0 24 24" fill="none">
    <path d="M12 2.16962C14.3761 2.16962 16.3023 4.09579 16.3023 6.47184C16.3023 6.63273 16.2934 6.79154 16.2762 6.94784C16.8662 6.64361 17.5357 6.47184 18.2452 6.47184C20.6213 6.47184 22.5474 8.39802 22.5474 10.7741C22.5474 12.7363 21.2338 14.3917 19.4379 14.9088C19.9955 15.6342 20.3269 16.5425 20.3269 17.5281C20.3269 19.9042 18.4008 21.8303 16.0247 21.8303C14.1851 21.8303 12.6152 20.6757 12 19.0517C11.3849 20.6757 9.81497 21.8303 7.97537 21.8303C5.59931 21.8303 3.67314 19.9042 3.67314 17.5281C3.67314 16.5425 4.00459 15.6342 4.56212 14.9088C2.76629 14.3917 1.45264 12.7363 1.45264 10.7741C1.45264 8.39802 3.37881 6.47184 5.75486 6.47184C6.46441 6.47184 7.13384 6.64361 7.72384 6.94784C7.70664 6.79154 7.69781 6.63272 7.69781 6.47184C7.69781 4.09579 9.62398 2.16962 12 2.16962Z" stroke="white" stroke-width="2" stroke-linejoin="round"/>
    <circle cx="2.5974" cy="2.5974" r="2.5974" transform="matrix(1 0 0 -1 9.35059 14.5455)" fill="#FDD949"/>
</svg>
