<svg width="108" height="107" viewBox="0 0 108 107" fill="none" xmlns="http://www.w3.org/2000/svg">
<g clip-path="url(#clip0_36_179)">
<path d="M48.0084 82.8983C44.3584 82.304 33.4044 80.5265 33.4044 80.5265C18.6723 78.134 8.66559 64.2496 11.0581 49.5176C13.4506 34.7856 27.335 24.7789 42.067 27.1713L56.671 29.5431C73.7373 32.3137 87.9155 44.0023 93.9719 60.0148C94.714 61.9787 94.3451 64.1893 92.99 65.7904C87.7151 72.022 72.3315 86.8474 48.0056 82.8963L48.0084 82.8983Z" fill="#FDD949"/>
<path d="M74.7208 36.394L67.2962 82.1063C73.4038 80.5904 79.0763 77.9917 84.1014 74.3716C87.9317 71.6105 91.1669 68.0297 93.1016 65.6648C94.3597 64.1283 94.7071 62.041 94.0181 60.1784C92.9965 57.4118 91.2558 53.2738 89.0752 50.2485C85.1649 44.821 80.4838 40.0491 74.716 36.3947L74.7208 36.394Z" fill="#3F3F3F"/>
<path d="M33.4045 80.5266L46.352 82.63L55.0166 29.2721L42.0692 27.1686C38.8587 26.6471 35.6902 26.7149 32.6728 27.291L24.5318 77.4357C27.2126 78.9379 30.1988 80.0042 33.4065 80.5238L33.4045 80.5266Z" fill="#3F3F3F"/>
<path d="M67.7805 67.5427C60.0463 58.1962 45.4268 55.7292 38.7064 55.0841C36.693 54.8909 34.9152 56.3725 34.7343 58.3864C34.1504 64.8818 33.855 78.9087 40.6983 88.2315C46.7125 96.4232 58.4955 97.8728 66.0517 91.0772C72.8132 84.9998 73.6271 74.613 67.7805 67.5427Z" fill="white"/>
<path d="M70.8169 48.8349C60.5259 55.2539 45.8771 52.9677 39.2942 51.4547C37.3242 51.0027 36.1043 49.0309 36.5714 47.0634C38.0711 40.7148 42.2321 27.3155 51.6728 20.6413C59.969 14.7738 71.6055 17.127 76.625 25.9643C81.1139 33.8687 78.603 43.979 70.8197 48.8369L70.8169 48.8349Z" fill="white"/>
</g>
<defs>
<clipPath id="clip0_36_179">
<rect width="79.3987" height="73.9231" fill="white" transform="translate(43.2061) rotate(35.766)"/>
</clipPath>
</defs>
</svg>
