<svg viewBox="0 0 24 24" fill="none">
    <path d="M12.0003 6.23999C9.44737 6.23999 6.7777 6.23999 4.54893 6.64746C3.52734 6.83423 2.72344 7.61484 2.49904 8.62882C2.12598 10.3145 2.12598 11.8737 2.12598 14.2628C2.12598 16.6519 2.12598 18.2112 2.49904 19.8969C2.72344 20.9109 3.52734 21.6915 4.54893 21.8782C6.7777 22.2857 9.44737 22.2857 12.0003 22.2857C14.5532 22.2857 17.2228 22.2857 19.4516 21.8782C20.4732 21.6915 21.2771 20.9109 21.5015 19.8969C21.8745 18.2112 21.8745 16.6519 21.8745 14.2628C21.8745 11.8737 21.8745 10.3145 21.5015 8.62882C21.2771 7.61484 20.4732 6.83423 19.4516 6.64746C17.2228 6.23999 14.5532 6.23999 12.0003 6.23999Z" stroke="#9AB3D5" stroke-width="2"/>
    <path d="M7.88574 5.82858V5.01429C7.88574 3.19175 9.3632 1.71429 11.1857 1.71429H12.8143C14.6369 1.71429 16.1143 3.19175 16.1143 5.01429V5.82858" stroke="#9AB3D5" stroke-width="2"/>
    <path d="M14.2506 11.8091C14.2506 11.8091 13.4046 10.866 12.0323 10.9839C10.66 11.1017 9.9985 11.9448 9.9985 12.7902C9.9985 15.256 14.2506 13.5472 14.2506 16.0757C14.2506 17.3793 11.43 18.2994 9.74951 16.7658" stroke="#FDD949" stroke-width="2" stroke-linecap="round" stroke-linejoin="round"/>
    <path d="M12.2002 9.32571L12.2002 10.9736" stroke="#FDD949" stroke-width="2" stroke-linecap="round"/>
    <path d="M12.2002 17.5521L12.2002 19.2" stroke="#FDD949" stroke-width="2" stroke-linecap="round"/>
</svg>
