<svg viewBox="0 0 24 24" fill="none">
    <path d="M1.3999 4.27138H3.95546L5.95012 10.5675C6.43683 12.1038 7.37076 13.44 8.6196 14.3868C9.86844 15.3336 11.3689 15.843 12.9082 15.8428H16.1777C17.9605 15.8428 19.6703 15.0978 20.931 13.7716C22.1917 12.4455 22.8999 10.6468 22.8999 8.77138C22.8999 6.89592 22.1917 5.09727 20.931 3.77112C19.6703 2.44497 17.9605 1.69995 16.1777 1.69995H15.5666V9.41424M5.78879 9.41424H22.8999M9.45546 19.7L10.6777 15.8428M18.011 15.8428L19.2332 19.7" stroke="#9AB3D5" stroke-width="2" stroke-linecap="round" stroke-linejoin="round"/>
    <circle cx="19.3999" cy="20.2" r="2.5" fill="#FDD949"/>
    <circle cx="9.3999" cy="20.2" r="2.5" fill="#FDD949"/>
</svg>
