<svg viewBox="0 0 24 24" fill="none">
    <path d="M19.7627 4.70667H21.0442C21.7173 4.70667 22.3447 5.11174 22.4854 5.76998C22.6628 6.60015 22.6688 7.465 22.5204 8.44478C22.407 9.19337 21.7315 9.70667 20.9744 9.70667H19.7627V4.70667Z" fill="#FDD949"/>
    <path d="M19.7627 10.7067H21.0442C21.7173 10.7067 22.3511 11.1092 22.4991 11.7658C22.6699 12.5241 22.6648 13.2819 22.5013 14.3745C22.3849 15.1524 21.6965 15.7067 20.91 15.7067H19.7627V10.7067Z" fill="#FDD949"/>
    <rect x="7.62256" y="6.38348" width="7.21761" height="4.14147" rx="1.2375" fill="#FDD949"/>
    <path d="M17.7542 22.1728C18.5435 22.0937 19.156 21.4519 19.2049 20.6601C19.373 17.9378 19.4623 15.2843 19.4623 12.2566C19.4623 9.22888 19.373 6.57546 19.2049 3.85314C19.156 3.06131 18.5435 2.41949 17.7542 2.34046C13.2184 1.88641 9.24395 1.88641 4.70818 2.34047C3.91879 2.41949 3.30634 3.06131 3.25745 3.85314C3.08937 6.57546 3 9.22888 3 12.2566C3 15.2844 3.08937 17.9378 3.25745 20.6601C3.30634 21.4519 3.91879 22.0937 4.70818 22.1728C9.24395 22.6268 13.2184 22.6268 17.7542 22.1728Z" stroke="#9AB3D5" stroke-width="2"/>
</svg>
