<svg viewBox="0 0 24 24" fill="none">
    <path d="M11.9492 15.6617C11.4063 15.6617 10.8441 15.6515 10.2709 15.6337C9.38085 15.6062 8.62722 16.2976 8.57207 17.1864C8.55017 17.5393 8.52636 17.8889 8.50281 18.2349L8.48373 18.5157C8.43293 19.2669 7.87298 19.9005 7.13255 20.0369C6.54771 20.1447 5.94661 20.2378 5.33339 20.2378C4.72017 20.2378 4.11907 20.1447 3.53423 20.0369C2.7938 19.9005 2.23385 19.2669 2.18305 18.5157L2.16398 18.2349C2.08318 17.0482 1.99951 15.8193 1.99951 14.5605C1.99951 13.6142 2.0468 12.6847 2.10461 11.7774C2.13502 10.311 2.28418 8.83793 2.47337 7.37658C2.76557 5.11959 4.65452 3.38523 6.92436 3.22018C8.55979 3.10127 10.2383 3 11.9492 3C13.6601 3 15.3387 3.10127 16.9741 3.22018C19.2439 3.38523 21.1329 5.11959 21.4251 7.37658C21.7181 9.63998 21.9151 11.9314 21.7236 14.1827C21.7252 14.3083 21.726 14.4343 21.726 14.5605C21.726 15.8193 21.6423 17.0481 21.5615 18.2348C21.5551 18.3287 21.5488 18.4223 21.5425 18.5157C21.4917 19.2669 20.9317 19.9005 20.1913 20.0369C19.6064 20.1447 19.0053 20.2378 18.3921 20.2378C17.7789 20.2378 17.1778 20.1447 16.593 20.0369C15.8525 19.9005 15.2926 19.2669 15.2418 18.5157C15.2355 18.4224 15.2291 18.3288 15.2227 18.2349C15.1993 17.8907 15.1756 17.5429 15.1538 17.1918C15.0986 16.3043 14.3467 15.6135 13.4578 15.6388C12.9433 15.6534 12.4385 15.6617 11.9492 15.6617Z" stroke="#9AB3D5" stroke-width="2" stroke-linejoin="round"/>
    <path d="M8.02832 12.0689L8.02832 8.04297" stroke="#FDD949" stroke-width="2" stroke-linecap="round" stroke-linejoin="round"/>
    <path d="M6.01561 10.056L10.0415 10.056" stroke="#FDD949" stroke-width="2" stroke-linecap="round" stroke-linejoin="round"/>
    <path d="M17.71 9.97816C17.71 10.8843 16.9755 11.6188 16.0694 11.6188C15.1633 11.6188 14.4287 10.8843 14.4287 9.97816C14.4287 9.07206 15.1633 8.33752 16.0694 8.33752C16.9755 8.33752 17.71 9.07206 17.71 9.97816Z" fill="#FDD949"/>
</svg>
