<svg viewBox="0 0 24 24" fill="none">
    <path d="M0.999512 14.7935L10.7534 3.47892C11.4117 2.71538 12.5947 2.71539 13.2529 3.47892L23.0068 14.7935" stroke="#9AB3D5" stroke-width="2" stroke-linecap="round" stroke-linejoin="round"/>
    <path d="M12.0043 14.1224C13.6258 14.1224 14.9403 15.4369 14.9403 17.0583V22.4104H9.06836V17.0583C9.06836 15.4369 10.3828 14.1224 12.0043 14.1224Z" fill="#FDD949"/>
    <path d="M4.3855 10.8752L10.7514 3.45868C11.4098 2.69157 12.597 2.69156 13.2555 3.45867L19.6213 10.8752L19.9802 13.435C20.3035 15.7417 20.2877 18.0833 19.9331 20.3854V20.3854C19.7538 21.5503 18.7513 22.4102 17.5726 22.4102H6.43418C5.25551 22.4102 4.25308 21.5503 4.07369 20.3854V20.3854C3.71918 18.0833 3.70334 15.7417 4.02668 13.435L4.3855 10.8752Z" stroke="#9AB3D5" stroke-width="2" stroke-linejoin="round"/>
</svg>
