<svg viewBox="0 0 22 22" fill="none">
<g clip-path="url(#clip0_44_92)">
<path d="M0.999023 11C0.999023 16.523 5.47602 21 10.999 21C16.522 21 20.999 16.523 20.999 11C20.999 5.477 16.522 1 10.999 1C5.47602 1 0.999023 5.477 0.999023 11Z" stroke="#9AB3D5" stroke-width="2" stroke-linecap="round" stroke-linejoin="round"/>
<path d="M11.9989 1.0498C11.9989 1.0498 14.9989 4.9998 14.9989 10.9998C14.9989 16.9998 11.9989 20.9498 11.9989 20.9498M9.99891 20.9498C9.99891 20.9498 6.99891 16.9998 6.99891 10.9998C6.99891 4.9998 9.99891 1.0498 9.99891 1.0498M1.62891 14.4998H20.3689M1.62891 7.49981H20.3689" stroke="#9AB3D5" stroke-width="2" stroke-linecap="round" stroke-linejoin="round"/>
</g>
<defs>
<clipPath id="clip0_44_92">
<rect width="22" height="22" fill="white"/>
</clipPath>
</defs>
</svg>
