<svg viewBox="0 0 24 24" fill="none">
    <path d="M14.979 9.97736L21.7595 16.7578" stroke="#9AB3D5" stroke-width="2" stroke-linecap="round" stroke-linejoin="round"/>
    <path d="M16.1605 3.21597C15.6993 2.75477 15.7554 2.81081 15.417 2.49872C14.2868 1.45626 12.5263 1.54613 11.3606 2.54885C10.8208 3.01326 10.2751 3.51982 9.38291 4.41202C8.50131 5.29363 7.99123 5.84186 7.52616 6.38065C6.50908 7.55895 6.434 9.34278 7.48289 10.4928C7.78472 10.8238 7.71874 10.7637 8.16578 11.2107C8.61283 11.6578 8.55257 11.5916 8.8835 11.8935C10.0336 12.9423 11.8174 12.8673 12.9957 11.8502C13.5345 11.3851 14.0827 10.875 14.9643 9.99344C15.8565 9.10123 16.3631 8.5556 16.8275 8.01571C17.8302 6.85005 17.9201 5.08958 16.8776 3.95933C16.5656 3.621 16.6217 3.67708 16.1605 3.21597Z" stroke="#9AB3D5" stroke-width="2"/>
    <path d="M2 18.25V21.6H13V18.25C13 17.3387 12.2613 16.6 11.35 16.6H3.65C2.73873 16.6 2 17.3387 2 18.25Z" fill="#FDD949"/>
    <path d="M1.2373 21.8625H13.6123" stroke="#9AB3D5" stroke-width="2" stroke-linecap="round"/>
</svg>
