<svg viewBox="0 0 24 24" fill="none">
    <path d="M15.5442 7.67802C16.5877 7.67802 17.4336 6.56709 17.4336 5.19668C17.4336 3.82627 16.5877 2.71533 15.5442 2.71533C14.5007 2.71533 13.6548 3.82627 13.6548 5.19668C13.6548 6.56709 14.5007 7.67802 15.5442 7.67802Z" stroke="#9AB3D5" stroke-width="2" stroke-linecap="round" stroke-linejoin="round"/>
    <path d="M8.4563 7.67802C9.49979 7.67802 10.3457 6.56709 10.3457 5.19668C10.3457 3.82627 9.49979 2.71533 8.4563 2.71533C7.41281 2.71533 6.56689 3.82627 6.56689 5.19668C6.56689 6.56709 7.41281 7.67802 8.4563 7.67802Z" stroke="#9AB3D5" stroke-width="2" stroke-linecap="round" stroke-linejoin="round"/>
    <path d="M20.6622 13.9779C21.7587 13.9779 22.6476 12.867 22.6476 11.4965C22.6476 10.1261 21.7587 9.0152 20.6622 9.0152C19.5657 9.0152 18.6768 10.1261 18.6768 11.4965C18.6768 12.867 19.5657 13.9779 20.6622 13.9779Z" stroke="#9AB3D5" stroke-width="2" stroke-linecap="round" stroke-linejoin="round"/>
    <path d="M3.33745 13.9779C4.43396 13.9779 5.32285 12.867 5.32285 11.4965C5.32285 10.1261 4.43396 9.0152 3.33745 9.0152C2.24095 9.0152 1.35205 10.1261 1.35205 11.4965C1.35205 12.867 2.24095 13.9779 3.33745 13.9779Z" stroke="#9AB3D5" stroke-width="2" stroke-linecap="round" stroke-linejoin="round"/>
    <path d="M17.6629 18.2479C17.6629 20.8547 14.5772 22.0259 11.9487 22.0259C9.32009 22.0259 6.23438 20.8547 6.23438 18.2479C6.23438 15.641 8.13914 11.6363 11.9487 11.6363C15.7582 11.6363 17.6629 15.641 17.6629 18.2479Z" fill="#FDD949"/>
</svg>
