<svg viewBox="0 0 24 24" fill="none">
    <path d="M2.1722 15.2203C2.22654 16.0027 2.8146 16.6603 3.58631 16.7999C4.17788 16.907 4.78562 17 5.40543 17C6.02523 17 6.63297 16.907 7.22454 16.7999C7.99625 16.6603 8.58431 16.0027 8.63865 15.2203C8.72195 14.0212 8.81085 12.7765 8.81085 11.5C8.81085 10.2235 8.72195 8.9788 8.63865 7.77967C8.58431 6.99732 7.99625 6.33971 7.22454 6.20006C6.63297 6.09301 6.02524 6 5.40543 6C4.78562 6 4.17788 6.09301 3.58631 6.20006C2.8146 6.33971 2.22654 6.99732 2.1722 7.77967C2.0889 8.9788 2 10.2235 2 11.5C2 12.7765 2.0889 14.0212 2.1722 15.2203Z" stroke="#9AB3D5" stroke-width="2" stroke-linejoin="round"/>
    <path d="M15.6738 15.2231C15.7268 16.0042 16.3119 16.663 17.0819 16.8049C17.6512 16.9099 18.2359 17 18.8319 17C19.428 17 20.0126 16.9099 20.5819 16.8049C21.3519 16.663 21.937 16.0042 21.99 15.2231C22.0715 14.0231 22.1584 12.7775 22.1584 11.5C22.1584 10.2225 22.0715 8.9769 21.99 7.77694C21.937 6.99579 21.3519 6.33699 20.5819 6.19508C20.0126 6.09014 19.428 6 18.8319 6C18.2359 6 17.6512 6.09014 17.0819 6.19508C16.3119 6.33699 15.7268 6.99579 15.6738 7.77694C15.5923 8.9769 15.5054 10.2225 15.5054 11.5C15.5054 12.7775 15.5923 14.0231 15.6738 15.2231Z" stroke="#9AB3D5" stroke-width="2" stroke-linejoin="round"/>
    <path d="M15.5054 11.5H8.81173" stroke="#9AB3D5" stroke-width="2" stroke-linecap="round" stroke-linejoin="round"/>
</svg>
