<svg viewBox="0 0 24 24" fill="none">
    <path d="M8.88269 8H4.15308C3.31683 8 2.51483 8.28095 1.92351 8.78105C1.3322 9.28115 1 9.95942 1 10.6667V14.35C1 15.2613 1.73873 16 2.65 16H9" stroke="#9AB3D5" stroke-width="2" stroke-linecap="round" stroke-linejoin="round"/>
    <path d="M7.46988 15.9987C7.55687 16.7908 8.18606 17.4195 8.97796 17.5085C10.9093 17.7255 12.9258 18 15 18C17.0742 18 19.0907 17.7255 21.022 17.5085C21.8139 17.4195 22.4431 16.7908 22.5301 15.9987C22.7414 14.0748 23 12.0661 23 10C23 7.93394 22.7414 5.92519 22.5301 4.0013C22.4431 3.20918 21.8139 2.58053 21.022 2.49155C19.0907 2.27453 17.0742 2 15 2C12.9258 2 10.9093 2.27453 8.97796 2.49155C8.18606 2.58053 7.55687 3.20918 7.46988 4.0013C7.25859 5.92519 7 7.93394 7 10C7 12.0661 7.25859 14.0748 7.46988 15.9987Z" fill="white" stroke="#9AB3D5" stroke-width="2"/>
    <path d="M7.5 22C9.433 22 11 20.433 11 18.5C11 16.567 9.433 15 7.5 15C5.567 15 4 16.567 4 18.5C4 20.433 5.567 22 7.5 22Z" fill="#FDD949"/>
    <path d="M18.5 22C20.433 22 22 20.433 22 18.5C22 16.567 20.433 15 18.5 15C16.567 15 15 16.567 15 18.5C15 20.433 16.567 22 18.5 22Z" fill="#FDD949"/>
</svg>
