<svg width="16" height="16" viewBox="0 0 32 32" fill="none" xmlns="http://www.w3.org/2000/svg">
    <path d="M7.6847 19.7539L3.47685 17.3244C1.93146 16.4324 0 17.5477 0 19.3318V25.8275C0 29.2364 2.76355 32 6.17243 32H7.42142C9.00622 32 10.2912 30.715 10.2912 29.1302V24.2673C10.2912 22.4049 9.29805 20.6848 7.68527 19.7533L7.6847 19.7539Z" fill="#FDD949"/>
    <path d="M30.1292 18.4712L26.055 16.1188C24.4422 15.1879 22.4553 15.1879 20.8431 16.1188L14.5473 19.7539C12.9345 20.6848 11.9414 22.4055 11.9414 24.2679V29.6819C11.9414 30.9623 12.9791 32 14.2595 32H25.8277C29.2365 32 32.0001 29.2364 32.0001 25.8275V21.7122C32.0001 20.3752 31.2868 19.1399 30.1292 18.4712Z" fill="#FDD949"/>
    <path d="M1.95773 14.4094L8.50994 18.1924C10.1227 19.1233 12.1096 19.1233 13.7218 18.1924L20.0176 14.5573C21.6304 13.6265 22.6235 11.9057 22.6235 10.0434V2.3181C22.6235 1.03769 21.5858 0 20.3054 0H6.17243C2.76355 0 0 2.76356 0 6.17245V11.0188C0 12.4174 0.746426 13.7098 1.95773 14.4094Z" fill="#FDD949"/>
    <path d="M31.9997 13.4985V5.40832C31.9997 2.42147 29.5783 0 26.592 0C25.3116 0 24.2739 1.03769 24.2739 2.3181V10.0439C24.2739 11.9063 25.2671 13.6265 26.8798 14.5579L28.5229 15.5065C30.0683 16.3986 31.9997 15.2832 31.9997 13.4991V13.4985Z" fill="#FDD949"/>
</svg>
